<svg width="16" height="12" viewBox="0 0 16 12" fill="none" xmlns="http://www.w3.org/2000/svg">
<path d="M15.0191 1.41654L15.4073 1.08005C15.4074 1.08016 15.4075 1.08028 15.4075 1.08039L14.6725 1.71736L8.00046 7.49982L8.0001 7.49996L8.32747 7.21622L15.0191 1.41654ZM7.67253 7.21622L7.99989 7.49994L7.99946 7.49976L1.32746 1.71736L0.592494 1.08039C0.592543 1.08029 0.592593 1.08018 0.592643 1.08007L0.980862 1.41654L7.67253 7.21622ZM1.11627 0.577065L1.09288 0.586794C1.21086 0.533936 1.34083 0.503299 1.47744 0.500252C1.34785 0.5032 1.22593 0.531438 1.11627 0.577065ZM14.908 0.587171L14.8839 0.577157C14.7749 0.531733 14.654 0.503655 14.5257 0.500328C14.6615 0.503784 14.7907 0.534493 14.908 0.587171ZM1.50001 11.5C1.46662 11.5 1.43361 11.4984 1.40105 11.4951C1.4336 11.4983 1.46662 11.5 1.50001 11.5H14.5C15.052 11.5 15.4999 11.052 15.5 10.5001C15.5 11.051 15.051 11.5 14.5 11.5H1.50001ZM14.5 1.49999L14.4993 1.50025L14.4994 1.49999H14.5ZM1.49998 1.49999H1.50026L1.5004 1.50034L1.49998 1.49999Z" fill="#2196F3" stroke="#2196F3"/>
</svg>
